<svg width="40" height="40" viewBox="0 0 40 40" fill="none" xmlns="http://www.w3.org/2000/svg">
<rect width="40" height="40" rx="8" fill="#FFF0C8"/>
<path d="M25.812 16.048V17.376H20.596V18.352L20.612 18.72V26H19.124C18.7827 25.3813 18.3347 24.816 17.78 24.304C17.2253 23.7813 16.596 23.344 15.892 22.992C15.1987 22.64 14.4573 22.4107 13.668 22.304L12.996 20.656C14.0093 20.08 15.0547 19.552 16.132 19.072C17.2093 18.592 18.324 18.176 19.476 17.824L19.14 18.448V17.376H12.34V16.048H25.812ZM19.124 18.848L19.46 19.28C18.9373 19.4293 18.404 19.616 17.86 19.84C17.3267 20.0533 16.804 20.2827 16.292 20.528C15.78 20.7733 15.2947 21.0187 14.836 21.264C15.3907 21.3707 15.9613 21.5733 16.548 21.872C17.1347 22.16 17.6787 22.5227 18.18 22.96C18.692 23.3867 19.0867 23.8613 19.364 24.384L19.204 24.448C19.1827 24.224 19.1613 23.9947 19.14 23.76C19.1293 23.5147 19.124 23.232 19.124 22.912V18.848ZM24.98 21.536C24.98 21.888 24.9107 22.224 24.772 22.544C24.6333 22.8533 24.3987 23.1093 24.068 23.312C23.7373 23.5147 23.2893 23.616 22.724 23.616C22.5427 23.616 22.3667 23.6107 22.196 23.6C22.036 23.5893 21.8813 23.568 21.732 23.536L21.812 22.208C21.876 22.2187 21.9507 22.2293 22.036 22.24C22.1213 22.24 22.2227 22.24 22.34 22.24C22.82 22.24 23.1293 22.1493 23.268 21.968C23.4173 21.7867 23.492 21.5733 23.492 21.328C23.492 20.816 23.2307 20.3787 22.708 20.016C22.1853 19.6533 21.412 19.3973 20.388 19.248L20.42 17.888C21.2627 17.984 22.0253 18.1973 22.708 18.528C23.3907 18.848 23.94 19.264 24.356 19.776C24.772 20.2773 24.98 20.864 24.98 21.536Z" fill="#B86B07"/>
</svg>
