<svg width="40" height="40" viewBox="0 0 40 40" fill="none" xmlns="http://www.w3.org/2000/svg">
<rect width="40" height="40" rx="8" fill="#E2EDF9"/>
<path d="M20.856 22.528C20.856 24.144 19.688 25.072 18.024 25.072C16.056 25.072 14.728 23.952 13.448 20.528L14.76 19.952C15.656 22.448 16.536 23.712 17.864 23.712C18.76 23.712 19.336 23.216 19.336 22.352C19.336 21.712 18.952 21.184 18.392 20.768C17.976 20.88 17.48 20.96 16.92 21.008L16.664 19.712C18.552 19.488 19.064 19.072 19.064 18.272C19.064 17.616 18.632 17.232 17.832 17.232C17.128 17.232 16.456 17.44 15.784 17.84L15.32 16.544C16.072 16.128 16.936 15.888 17.944 15.888C19.832 15.888 20.6 16.96 20.6 18.256C20.6 19.056 20.296 19.728 19.64 20.192C19.656 20.208 19.656 20.208 19.672 20.208C20.12 20.32 20.632 20.368 21.112 20.368C21.624 20.368 22.152 20.304 22.696 20.16V17.376H21.576V16.048H25.88V17.376H24.264V26H22.696V21.536C22.28 21.632 21.864 21.664 21.432 21.664C21.192 21.664 20.936 21.648 20.664 21.616C20.792 21.904 20.856 22.208 20.856 22.528Z" fill="#005EC5"/>
</svg>
