<svg width="40" height="40" viewBox="0 0 40 40" fill="none" xmlns="http://www.w3.org/2000/svg">
<rect width="40" height="40" rx="8" fill="#F9E2F9"/>
<path d="M22.44 26.192C21.7467 26.192 21.1973 26.08 20.792 25.856C20.3973 25.6213 20.04 25.28 19.72 24.832C19.304 25.3653 18.8507 25.728 18.36 25.92C17.88 26.1013 17.304 26.192 16.632 26.192C16.0027 26.192 15.448 26.0747 14.968 25.84C14.488 25.5947 14.1147 25.2587 13.848 24.832C13.5813 24.3947 13.448 23.8827 13.448 23.296C13.448 22.5707 13.672 21.968 14.12 21.488C14.568 20.9973 15.192 20.752 15.992 20.752C16.6 20.752 17.08 20.896 17.432 21.184C17.7947 21.4613 17.976 21.84 17.976 22.32C17.976 22.4907 17.9547 22.6667 17.912 22.848C17.88 23.0187 17.8267 23.1573 17.752 23.264L16.52 23.168C16.5733 22.9973 16.6 22.8427 16.6 22.704C16.6 22.2667 16.376 22.048 15.928 22.048C15.6293 22.048 15.3787 22.1493 15.176 22.352C14.984 22.5547 14.888 22.848 14.888 23.232C14.888 23.6693 15.048 24.0267 15.368 24.304C15.688 24.5707 16.1787 24.704 16.84 24.704C17.5547 24.704 18.072 24.528 18.392 24.176C18.7227 23.8133 18.9147 23.344 18.968 22.768H20.44C20.4933 23.44 20.6853 23.9307 21.016 24.24C21.3573 24.5493 21.7627 24.704 22.232 24.704C22.776 24.704 23.16 24.5173 23.384 24.144C23.608 23.76 23.72 23.2747 23.72 22.688C23.72 21.696 23.4213 20.8747 22.824 20.224C22.2267 19.5627 21.4053 19.0667 20.36 18.736C19.3147 18.3947 18.1307 18.224 16.808 18.224L16.968 16.672C18.4187 16.6933 19.6667 16.864 20.712 17.184C21.768 17.4933 22.6373 17.9253 23.32 18.48C24.0027 19.024 24.5093 19.6587 24.84 20.384C25.1707 21.0987 25.336 21.8613 25.336 22.672C25.336 23.4933 25.2027 24.1653 24.936 24.688C24.68 25.2 24.328 25.5787 23.88 25.824C23.4427 26.0693 22.9627 26.192 22.44 26.192Z" fill="#970B97"/>
</svg>
