<svg width="40" height="40" viewBox="0 0 40 40" fill="none" xmlns="http://www.w3.org/2000/svg">
<rect width="40" height="40" rx="8" fill="#F9F5E2"/>
<path d="M23.844 17.376H22.404V19.808C22.404 21.52 21.764 22.224 20.228 22.64L19.508 21.344C20.532 21.056 20.82 20.64 20.82 19.552V17.376H17.284V20.48C17.284 21.92 17.508 22.24 18.9 22.96L20.324 23.664C21.956 24.496 22.404 25.056 22.404 25.984C22.404 26.528 22.18 27.072 21.812 27.584L20.292 26.976C20.58 26.656 20.724 26.336 20.724 26C20.724 25.488 20.484 25.28 19.396 24.72L17.988 24.016C16.18 23.104 15.716 22.512 15.716 20.72V17.376H14.5V16.048H23.844V17.376Z" fill="#AE9100"/>
</svg>
