<svg width="40" height="40" viewBox="0 0 40 40" fill="none" xmlns="http://www.w3.org/2000/svg">
<rect width="40" height="40" rx="8" fill="#E2F8F9"/>
<path d="M19.252 29.392L18.164 28.384L21.14 25.568V18.416H20.452L20.532 17.104H25.412V18.416H22.82V26L19.252 29.392ZM16.612 26.192C15.9933 26.192 15.4387 26.0533 14.948 25.776C14.4573 25.488 14.068 25.0507 13.78 24.464C13.492 23.8667 13.348 23.1093 13.348 22.192C13.348 21.328 13.4973 20.576 13.796 19.936C14.0947 19.296 14.5107 18.7733 15.044 18.368C15.396 18.0693 15.796 17.8293 16.244 17.648C16.692 17.4667 17.22 17.3333 17.828 17.248C18.436 17.152 19.156 17.104 19.988 17.104H20.772L20.788 18.416H19.572C18.932 18.416 18.3987 18.4533 17.972 18.528C17.5453 18.592 17.188 18.688 16.9 18.816C16.6227 18.944 16.3773 19.0987 16.164 19.28C15.748 19.6213 15.428 20.048 15.204 20.56C14.98 21.0613 14.868 21.648 14.868 22.32C14.868 22.9387 14.9427 23.44 15.092 23.824C15.2413 24.208 15.4493 24.4907 15.716 24.672C15.9827 24.8533 16.2867 24.944 16.628 24.944C16.9053 24.944 17.1347 24.8853 17.316 24.768C17.508 24.6507 17.6573 24.4853 17.764 24.272C17.8813 24.048 17.94 23.776 17.94 23.456C17.94 22.9653 17.8067 22.592 17.54 22.336C17.284 22.0693 16.948 21.936 16.532 21.936C16.0947 21.936 15.6893 22.0533 15.316 22.288C14.9533 22.5227 14.6227 22.8053 14.324 23.136L14.052 21.952C14.3933 21.5787 14.804 21.2693 15.284 21.024C15.764 20.7787 16.292 20.656 16.868 20.656C17.6573 20.656 18.2973 20.896 18.788 21.376C19.2787 21.8453 19.524 22.4907 19.524 23.312C19.524 23.9093 19.4067 24.4267 19.172 24.864C18.948 25.2907 18.6173 25.6213 18.18 25.856C17.7533 26.08 17.2307 26.192 16.612 26.192Z" fill="#028A90"/>
</svg>
