<svg width="40" height="40" viewBox="0 0 40 40" fill="none" xmlns="http://www.w3.org/2000/svg">
<rect width="40" height="40" rx="8" fill="#F9E2E2"/>
<path d="M21.484 26.192C20.972 26.192 20.524 26.1013 20.14 25.92C19.7667 25.7387 19.404 25.4773 19.052 25.136C18.7107 24.784 18.3373 24.3573 17.932 23.856C17.6227 23.4507 17.3613 23.1627 17.148 22.992C16.9453 22.8213 16.6947 22.736 16.396 22.736C16.14 22.736 15.916 22.8213 15.724 22.992C15.5427 23.1627 15.452 23.424 15.452 23.776C15.452 24.1067 15.548 24.368 15.74 24.56C15.9427 24.752 16.204 24.848 16.524 24.848C16.8547 24.848 17.1427 24.7413 17.388 24.528C17.6333 24.3147 17.836 23.9947 17.996 23.568L18.972 24.656C18.7693 24.9547 18.556 25.2213 18.332 25.456C18.108 25.68 17.8467 25.8613 17.548 26C17.2493 26.128 16.8653 26.192 16.396 26.192C15.8093 26.192 15.3347 26.0747 14.972 25.84C14.62 25.6053 14.3587 25.3013 14.188 24.928C14.028 24.5547 13.948 24.1653 13.948 23.76C13.948 23.2693 14.0547 22.848 14.268 22.496C14.492 22.144 14.7853 21.872 15.148 21.68C15.5107 21.4773 15.9213 21.376 16.38 21.376C16.7853 21.376 17.1427 21.44 17.452 21.568C17.7613 21.696 18.0653 21.8987 18.364 22.176C18.6627 22.4533 18.988 22.8213 19.34 23.28C19.6493 23.6533 19.916 23.9467 20.14 24.16C20.364 24.3733 20.5827 24.5227 20.796 24.608C21.02 24.6933 21.2707 24.736 21.548 24.736C22.0173 24.736 22.38 24.5813 22.636 24.272C22.9027 23.9627 23.036 23.4773 23.036 22.816C23.036 22.1973 22.9347 21.6 22.732 21.024C22.5293 20.4373 22.2467 19.888 21.884 19.376C21.5213 18.8533 21.1 18.368 20.62 17.92C20.14 17.4613 19.6173 17.0507 19.052 16.688C18.4973 16.3253 17.9213 16.016 17.324 15.76L18.06 14.288C18.6893 14.544 19.3187 14.8747 19.948 15.28C20.5773 15.6853 21.1693 16.1547 21.724 16.688C22.2893 17.2107 22.7907 17.792 23.228 18.432C23.6653 19.0613 24.0067 19.744 24.252 20.48C24.4973 21.216 24.62 21.9893 24.62 22.8C24.62 23.504 24.4973 24.112 24.252 24.624C24.0173 25.1253 23.6653 25.5147 23.196 25.792C22.7267 26.0587 22.156 26.192 21.484 26.192Z" fill="#9F0000"/>
</svg>
